<svg xmlns="http://www.w3.org/2000/svg" viewBox="0 0 800 600">
  <!-- Sky -->
  <defs>
    <linearGradient id="skyGradient" x1="0%" y1="0%" x2="0%" y2="100%">
      <stop offset="0%" style="stop-color:#FFB45B"/>
      <stop offset="50%" style="stop-color:#FF8C37"/>
      <stop offset="100%" style="stop-color:#FF5C00"/>
    </linearGradient>
  </defs>
  <rect width="800" height="300" fill="url(#skyGradient)"/>
  
  <!-- Rice Fields -->
  <path d="M0,200 Q400,150 800,250 L800,600 L0,600 Z" fill="#4B7F52"/>
  <path d="M0,250 Q400,200 800,300 L800,600 L0,600 Z" fill="#3D6B43"/>
  <path d="M0,300 Q400,250 800,350 L800,600 L0,600 Z" fill="#2F5734"/>
  <path d="M0,350 Q400,300 800,400 L800,600 L0,600 Z" fill="#214325"/>
  <path d="M0,400 Q400,350 800,450 L800,600 L0,600 Z" fill="#132F16"/>
  
  <!-- Farmer -->
  <g transform="translate(400,300)">
    <path d="M-20,-30 Q0,-60 20,-30 L0,0 Z" fill="#362F2D"/> <!-- Hat -->
    <circle cx="0" cy="0" r="10" fill="#8B5E3C"/> <!-- Head -->
    <path d="M-15,10 L15,10 L20,40 L-20,40 Z" fill="#1B4B1E"/> <!-- Body -->
    <path d="M-20,40 L-15,70 M20,40 L15,70" stroke="#1B4B1E" stroke-width="4"/> <!-- Legs -->
  </g>
</svg> 