<svg xmlns="http://www.w3.org/2000/svg" viewBox="0 0 48 48">
  <path fill="#1DA1F2" d="M46.105 12.33a17.515 17.515 0 01-5.043 1.383 8.814 8.814 0 003.858-4.85 17.565 17.565 0 01-5.576 2.13 8.78 8.78 0 00-6.42-2.778c-4.856 0-8.793 3.937-8.793 8.793 0 .69.077 1.36.227 2.003-7.307-.366-13.787-3.868-18.12-9.19a8.759 8.759 0 00-1.19 4.422c0 3.052 1.552 5.742 3.912 7.316a8.74 8.74 0 01-3.982-1.1v.11c0 4.26 3.03 7.814 7.054 8.62a8.808 8.808 0 01-3.972.15c1.12 3.493 4.368 6.034 8.218 6.105a17.643 17.643 0 01-10.92 3.766c-.71 0-1.41-.042-2.097-.124a24.873 24.873 0 0013.473 3.952c16.167 0 25.008-13.39 25.008-25.008 0-.38-.01-.76-.024-1.138a17.87 17.87 0 004.387-4.543z"/>
</svg> 